<svg width="69" height="73" viewBox="0 0 69 73" fill="none" xmlns="http://www.w3.org/2000/svg">
<path fill-rule="evenodd" clip-rule="evenodd" d="M50.5 0H0V73H31.986L10.6856 48.2095L19.0289 41.0409L40.5349 66.0707L32.4702 73H50.5H52V72.9401C61.5158 72.1765 69 64.2123 69 54.5C69 45.7596 62.9387 38.4349 54.7902 36.5C62.9387 34.5651 69 27.2404 69 18.5C69 8.78771 61.5158 0.823471 52 0.0599365V0H50.5ZM13.3772 31.3942C9.77798 27.2052 10.2561 20.8917 14.445 17.2924L14.9597 16.8502L49.1872 56.686L51.3974 56.7374L42.0519 64.7673L13.3772 31.3942ZM51.3974 56.7374L51.9121 56.2952C56.1011 52.696 56.5792 46.3824 52.9799 42.1935L24.3053 8.82037L14.9597 16.8502L17.1699 16.9017L51.3974 56.7374ZM33.407 1L25.8222 7.51698L47.3282 32.5468L54.913 26.0298L33.407 1Z" fill="#0059A6"/>
</svg>
