<svg width="350" height="65" viewBox="0 0 350 65" fill="none" xmlns="http://www.w3.org/2000/svg">
<g clip-path="url(#clip0_5_7)">
<path d="M0 0H36.7992L42.5455 10.804H13.0617V25.8243H36.0082L39.2767 31.2703L36.0082 36.7162H13.0617V54.1079H42.5455L37.7699 65H0V0Z" fill="#699AFE"/>
<path d="M76.9945 65C73.1176 65 69.6682 64.454 66.6462 63.362C63.6244 62.2128 61.0302 60.4311 58.8636 58.0174C56.754 55.6036 55.1288 52.4999 53.9886 48.7068C52.9053 44.9137 52.3636 40.3735 52.3636 35.0864V0L65.0212 4.72534V36.207C65.0212 39.5402 65.2778 42.3563 65.791 44.6553C66.3611 46.8965 67.1593 48.7068 68.1856 50.0861C69.212 51.4654 70.4664 52.4713 71.9486 53.1034C73.4312 53.6783 75.113 53.9656 76.9945 53.9656C78.876 53.9656 80.5582 53.6783 82.0404 53.1034C83.5799 52.4713 84.8913 51.4654 85.9746 50.0861C87.0578 48.7068 87.8848 46.8965 88.455 44.6553C89.0251 42.3563 89.3101 39.5402 89.3101 36.207V4.72534L101.455 0V35.0864C101.455 40.3735 100.913 44.9137 99.8296 48.7068C98.7464 52.4999 97.1499 55.6036 95.0403 58.0174C92.9307 60.4311 90.3649 62.2128 87.3432 63.362C84.3212 64.454 80.8717 65 76.9945 65Z" fill="#373E6A"/>
<path d="M108 0L121.091 3.25325V61.7468L108 65V0Z" fill="#373E6A"/>
<path d="M127.636 3.25325L136.409 0H146.318C151.533 0 156.195 0.644143 160.306 1.93243C164.478 3.22072 168.006 5.2117 170.889 7.9054C173.834 10.5405 176.073 13.8784 177.607 17.9189C179.202 21.9595 180 26.732 180 32.2365C180 37.6824 179.202 42.4551 177.607 46.554C176.073 50.6532 173.865 54.0787 170.981 56.8311C168.159 59.5247 164.724 61.5742 160.674 62.9798C156.625 64.3266 152.085 65 147.054 65H137.345L127.636 61.7468V3.25325ZM145.49 54.5474C148.68 54.5474 151.533 54.1375 154.048 53.3175C156.625 52.4391 158.803 51.1215 160.582 49.3649C162.361 47.5495 163.711 45.2364 164.631 42.4258C165.613 39.6149 166.104 36.2183 166.104 32.2365C166.104 28.2545 165.613 24.8874 164.631 22.1351C163.711 19.3243 162.361 17.0698 160.582 15.3716C158.803 13.6149 156.625 12.3558 154.048 11.5946C151.533 10.7748 148.68 10.3649 145.49 10.3649H141.256V54.5474H145.49Z" fill="#373E6A"/>
</g>
<defs>
<clipPath id="clip0_5_7">
<rect width="350" height="65" fill="white"/>
</clipPath>
</defs>
</svg>
