<svg width="24" height="24" viewBox="0 0 24 24" fill="none" xmlns="http://www.w3.org/2000/svg">
<path fill-rule="evenodd" clip-rule="evenodd" d="M12 10.5858L18.3512 4.23461C18.7488 3.83703 19.3876 3.83131 19.7782 4.22183C20.1687 4.61236 20.163 5.25125 19.7654 5.64883L13.4142 12L19.7654 18.3512C20.163 18.7488 20.1687 19.3877 19.7782 19.7782C19.3877 20.1687 18.7488 20.163 18.3512 19.7654L12 13.4142L5.64882 19.7654C5.25123 20.163 4.61235 20.1687 4.22182 19.7782C3.8313 19.3877 3.83702 18.7488 4.2346 18.3512L10.5858 12L4.23461 5.64883C3.83703 5.25125 3.8313 4.61236 4.22183 4.22183C4.61235 3.83131 5.25124 3.83703 5.64882 4.23461L12 10.5858Z" fill="#202656"/>
</svg>
