<svg width="96" height="94" viewBox="0 0 96 94" xmlns="http://www.w3.org/2000/svg" xmlns:xlink="http://www.w3.org/1999/xlink"><view id="checker-checked" viewBox="48 0 24 24"/><svg width="24" height="24" fill="none" viewBox="0 0 24 24" x="48" xmlns="http://www.w3.org/2000/svg"><rect x="1" y="1" width="22" height="22" rx="8" stroke="#202656" stroke-width="2"/><path d="M7.311 10.738a1 1 0 00-1.463 1.364l1.463-1.364zm4.077 5.842l-.731.682a1 1 0 001.566-.132l-.835-.55zm6.868-8.61a1 1 0 10-1.67-1.1l1.67 1.1zM5.848 12.102l4.809 5.16 1.463-1.364-4.809-5.16-1.463 1.364zm6.375 5.028l6.033-9.16-1.67-1.1-6.033 9.16 1.67 1.1z" fill="#202656"/></svg><view id="checker-loading" viewBox="0 25 24 24"/><svg width="24" height="24" fill="none" viewBox="0 0 24 24" y="25" xmlns="http://www.w3.org/2000/svg"><rect x="1" y="1" width="22" height="22" rx="8" stroke="#F4F5F8" stroke-width="2"/></svg><view id="checker-unchecked" viewBox="24 25 24 24"/><svg width="24" height="24" fill="none" viewBox="0 0 24 24" x="24" y="25" xmlns="http://www.w3.org/2000/svg"><rect x="1" y="1" width="22" height="22" rx="8" stroke="#ADB3BD" stroke-width="2"/></svg><view id="logo-dark" viewBox="48 25 24 21"/><svg width="24" height="21" fill="none" viewBox="0 0 24 21" x="48" y="25" xmlns="http://www.w3.org/2000/svg"><path d="M4.043 7.031l2.595-1.44L5.189 3.18h13.622L12.002 14.53l-1.448-2.417-2.595 1.444 4.043 6.737L24 .294H0l4.043 6.737z" fill="#fff"/></svg><view id="logo-light" viewBox="0 49 24 21"/><svg width="24" height="21" fill="none" viewBox="0 0 24 21" y="49" xmlns="http://www.w3.org/2000/svg"><path d="M4.043 7.031l2.595-1.44L5.189 3.18h13.622L12.002 14.53l-1.448-2.417-2.595 1.444 4.043 6.737L24 .294H0l4.043 6.737z" fill="#202656"/></svg><view id="pin-active" viewBox="72 0 24 24"/><svg width="24" height="24" fill="none" viewBox="0 0 24 24" x="72" xmlns="http://www.w3.org/2000/svg"><path d="M11.049 2.927c.3-.921 1.603-.921 1.902 0l1.519 4.674a1 1 0 00.95.69h4.915c.969 0 1.371 1.24.588 1.81l-3.976 2.888a1 1 0 00-.363 1.118l1.518 4.674c.3.922-.755 1.688-1.538 1.118l-3.976-2.888a1 1 0 00-1.176 0l-3.976 2.888c-.783.57-1.838-.197-1.538-1.118l1.518-4.674a1 1 0 00-.363-1.118l-3.976-2.888c-.783-.57-.38-1.81.588-1.81h4.914a1 1 0 00.951-.69l1.519-4.674z" fill="#202656"/></svg><view id="pin-deactive" viewBox="72 24 24 24"/><svg width="24" height="24" fill="none" viewBox="0 0 24 24" x="72" y="24" xmlns="http://www.w3.org/2000/svg"><path d="M11.049 2.927c.3-.921 1.603-.921 1.902 0l1.519 4.674a1 1 0 00.95.69h4.915c.969 0 1.371 1.24.588 1.81l-3.976 2.888a1 1 0 00-.363 1.118l1.518 4.674c.3.922-.755 1.688-1.538 1.118l-3.976-2.888a1 1 0 00-1.176 0l-3.976 2.888c-.783.57-1.838-.197-1.538-1.118l1.518-4.674a1 1 0 00-.363-1.118l-3.976-2.888c-.783-.57-.38-1.81.588-1.81h4.914a1 1 0 00.951-.69l1.519-4.674z" fill="#ADB3BD"/></svg><view id="pin-loading" viewBox="0 70 24 24"/><svg width="24" height="24" fill="none" viewBox="0 0 24 24" y="70" xmlns="http://www.w3.org/2000/svg"><path d="M11.049 2.927c.3-.921 1.603-.921 1.902 0l1.519 4.674a1 1 0 00.95.69h4.915c.969 0 1.371 1.24.588 1.81l-3.976 2.888a1 1 0 00-.363 1.118l1.518 4.674c.3.922-.755 1.688-1.538 1.118l-3.976-2.888a1 1 0 00-1.176 0l-3.976 2.888c-.783.57-1.838-.197-1.538-1.118l1.518-4.674a1 1 0 00-.363-1.118l-3.976-2.888c-.783-.57-.38-1.81.588-1.81h4.914a1 1 0 00.951-.69l1.519-4.674z" fill="#F4F5F8"/></svg><view id="toggleButton-closed" viewBox="0 0 24 25"/><svg width="24" height="25" fill="none" viewBox="0 0 24 25" xmlns="http://www.w3.org/2000/svg"><path fill-rule="evenodd" clip-rule="evenodd" d="M19 6.294H5a1 1 0 000 2h14a1 1 0 100-2zm0 5H5a1 1 0 100 2h14a1 1 0 100-2zm-14 5h14a1 1 0 110 2H5a1 1 0 110-2z" fill="#202656"/></svg><view id="toggleButton-openned" viewBox="24 0 24 25"/><svg width="24" height="25" fill="none" viewBox="0 0 24 25" x="24" xmlns="http://www.w3.org/2000/svg"><path fill-rule="evenodd" clip-rule="evenodd" d="M12 10.88l6.351-6.351a1.01 1.01 0 011.427-.013c.39.39.385 1.03-.013 1.427l-6.35 6.351 6.35 6.352a1.01 1.01 0 01.013 1.427 1.01 1.01 0 01-1.427-.013L12 13.709l-6.351 6.35a1.01 1.01 0 01-1.427.014 1.01 1.01 0 01.013-1.427l6.35-6.352-6.35-6.35a1.01 1.01 0 01-.013-1.428 1.01 1.01 0 011.427.013L12 10.88z" fill="#202656"/></svg></svg>